<svg width="280" height="103" viewBox="0 0 280 103" fill="none" xmlns="http://www.w3.org/2000/svg">
<path fill-rule="evenodd" clip-rule="evenodd" d="M221.305 79.6326L230.134 75.5301C230.134 75.5301 225.86 70.8764 225.86 64.4183C225.86 58.34 230.039 53.7812 237.922 53.7812C246.659 53.7812 250.363 59.2897 250.363 65.368C250.363 70.6865 246.469 75.1502 246.469 75.1502L256.152 79.633L238.729 87.8898L221.305 79.6326Z" fill="#FCB92C"/>
<path d="M235.646 0.726561C213.533 0.72656 195.599 17.616 195.599 45.3007C195.599 66.5431 205.697 75.5972 205.697 75.5972L222.935 67.5878C222.935 67.5878 215.1 59.056 215.1 47.216C215.1 36.0725 222.761 27.7148 237.213 27.7148C253.232 27.7148 260.022 37.8136 260.022 48.9572C260.022 58.7078 252.883 66.8913 252.883 66.8913L271.688 75.5972C271.688 75.5972 279.523 64.1054 279.523 45.8231C279.523 19.183 258.978 0.726562 235.646 0.726561Z" fill="#6AB946"/>
<path d="M75.9216 39.6066L78.1616 29.7666C73.9216 30.7266 73.7616 28.6466 73.7616 24.5666V15.7666C73.7616 5.44656 69.5216 0.726562 58.0816 0.726562C45.9216 0.726562 40.1616 6.00656 40.9616 12.4866L53.3616 14.8066C52.9616 11.2066 54.3216 9.84656 57.2016 9.84656C60.2416 9.84656 61.2816 11.3666 61.2816 15.6066V16.7266C48.2416 16.8066 39.6816 20.7266 39.6816 29.3666C39.6816 36.4866 45.5216 40.3266 52.3216 40.3266C58.1616 40.3266 61.0416 37.4466 62.9616 34.7266C64.0016 37.5266 67.3616 40.9666 75.9216 39.6066ZM61.2816 26.7266C60.9616 30.1666 58.0816 31.4466 55.6816 31.4466C53.6016 31.4466 52.2416 30.4866 52.2416 28.4066C52.2416 24.7266 56.4016 23.8466 61.2816 23.7666V26.7266Z" fill="#0D0302"/>
<path d="M167.065 40.3266C181.785 40.3266 186.345 31.3666 186.345 20.4066C186.345 10.0866 182.265 0.726562 166.825 0.726562C151.705 0.726562 147.385 9.76656 147.385 20.2466C147.385 30.9666 151.945 40.3266 167.065 40.3266ZM166.905 31.0466C161.385 31.0466 160.345 25.7666 160.345 20.4066C160.345 15.1266 161.385 10.0066 166.825 10.0066C172.345 10.0066 173.385 15.1266 173.385 20.5666C173.385 26.0066 172.345 31.0466 166.905 31.0466Z" fill="#0D0302"/>
<path d="M23.76 25.9266C23.76 29.1266 21.92 31.0466 18.88 31.0466C14.56 31.0466 12.96 27.7666 12.96 21.1266C12.96 15.7666 13.52 10.0066 18.88 10.0066C21.12 10.0066 23.6 11.5266 22.88 16.5666L35.12 14.0866C36 5.60656 29.28 0.726562 19.04 0.726562C8.16 0.726562 0 5.60656 0 20.4066C0 33.0466 5.76 40.3266 18.72 40.3266C29.04 40.3266 33.2 35.3666 35.36 28.2466L23.76 25.9266Z" fill="#0D0302"/>
<path d="M184.105 84.1495L186.345 74.3095C182.105 75.2695 181.945 73.1895 181.945 69.1095V60.3095C181.945 49.9895 177.705 45.2695 166.265 45.2695C154.105 45.2695 148.345 50.5495 149.145 57.0295L161.545 59.3495C161.145 55.7495 162.505 54.3895 165.385 54.3895C168.425 54.3895 169.465 55.9095 169.465 60.1495V61.2695C156.425 61.3495 147.865 65.2695 147.865 73.9095C147.865 81.0295 153.705 84.8695 160.505 84.8695C166.345 84.8695 169.225 81.9895 171.145 79.2695C172.185 82.0695 175.545 85.5095 184.105 84.1495ZM169.465 71.2695C169.145 74.7095 166.265 75.9895 163.865 75.9895C161.785 75.9895 160.425 75.0295 160.425 72.9495C160.425 69.2695 164.585 68.3895 169.465 68.3095V71.2695Z" fill="#0D0302"/>
<path d="M82.5605 83.7467H95.0405V46.3867H82.5605V83.7467Z" fill="#0D0302"/>
<path d="M88.7998 102.316C84.9598 102.316 81.7598 99.1164 81.7598 95.2764C81.7598 91.4364 84.9598 88.3164 88.7998 88.3164C92.7198 88.3164 95.8398 91.4364 95.8398 95.2764C95.8398 99.1164 92.7198 102.316 88.7998 102.316Z" fill="#0D0302"/>
<path d="M60.6027 83.7495H73.0827V59.1895C73.0827 47.5095 66.6827 45.2695 61.1627 45.2695C52.5227 45.2695 49.4827 50.5495 48.6027 52.5495C47.0027 47.1095 42.4427 45.2695 37.6427 45.2695C29.5627 45.2695 26.4427 50.0695 25.4027 52.3095V46.3895H13.8027V83.7495H26.2827V65.1095C26.9227 62.6295 29.1627 55.8295 33.6427 55.8295C36.2027 55.8295 37.2427 58.0695 37.2427 62.3895V83.7495H49.7227V64.8695C50.4427 62.0695 52.6827 55.8295 57.0027 55.8295C59.5627 55.8295 60.6027 57.9895 60.6027 62.3895V83.7495Z" fill="#0D0302"/>
<path d="M129.284 32.0273H141.764V14.6466C141.764 2.96656 135.364 0.726562 129.844 0.726562C121.204 0.726562 118.164 6.00656 117.284 8.00656C115.684 2.56656 111.124 0.726562 106.324 0.726562C98.2444 0.726562 95.1244 5.52656 94.0844 7.76656V1.84656H82.4844V39.2066H94.9644V20.5666C95.6044 18.0866 97.8444 11.2866 102.324 11.2866C104.884 11.2866 105.924 13.5266 105.924 17.8466V32.0273H118.404V20.3266C119.124 17.5266 121.364 11.2866 125.684 11.2866C128.244 11.2866 129.284 13.4466 129.284 17.8466V32.0273Z" fill="#0D0302"/>
<path d="M105.959 39.207V83.7492H118.439V39.207H105.959Z" fill="#0D0302"/>
<path d="M129.285 39.207V83.7492H141.765V39.207H129.285Z" fill="#0D0302"/>
</svg>
