<svg width="84" height="83" viewBox="0 0 84 83" fill="none" xmlns="http://www.w3.org/2000/svg">
<path fill-rule="evenodd" clip-rule="evenodd" d="M25.7051 74.1717L34.5343 70.0692C34.5343 70.0692 30.2605 65.4155 30.2605 58.9573C30.2605 52.879 34.4393 48.3203 42.3221 48.3203C51.0596 48.3203 54.7636 53.8288 54.7636 59.9071C54.7636 65.2256 50.8697 69.6893 50.8697 69.6893L60.5524 74.1721L43.1292 82.4288L25.7051 74.1717Z" fill="#FCB92C"/>
<path d="M40.0461 -1.91795e-06C17.9332 -2.88454e-06 -0.000931524 16.8894 -0.000932735 44.5741C-0.000933663 65.8165 10.0979 74.8706 10.0979 74.8706L27.3355 66.8612C27.3355 66.8612 19.5002 58.3294 19.5002 46.4894C19.5003 35.3459 27.1614 26.9882 41.6132 26.9882C57.632 26.9882 64.4226 37.0871 64.4226 48.2306C64.4226 57.9812 57.2838 66.1647 57.2838 66.1647L76.0885 74.8706C76.0885 74.8706 83.9238 63.3789 83.9238 45.0965C83.9238 18.4565 63.3779 -8.9809e-07 40.0461 -1.91795e-06Z" fill="#6AB946"/>
</svg>
